0
SECTION
2
HEADER
9
$INSUNITS
70
4
9
$ACADVER
1
AC1014
9
$HANDSEED
5
FFFF
0
ENDSEC
0
SECTION
2
TABLES
0
TABLE
2
VPORT
5
8
100
AcDbSymbolTable
0
ENDTAB
0
TABLE
2
LTYPE
5
5
100
AcDbSymbolTable
0
LTYPE
5
14
100
AcDbSymbolTableRecord
100
AcDbLinetypeTableRecord
2
BYBLOCK
70
0
0
LTYPE
5
15
100
AcDbSymbolTableRecord
100
AcDbLinetypeTableRecord
2
BYLAYER
70
0
0
ENDTAB
0
TABLE
2
LAYER
5
2
100
AcDbSymbolTable
70
2
0
LAYER
5
50
100
AcDbSymbolTableRecord
100
AcDbLayerTableRecord
2
0
70
0
6
CONTINUOUS
0
ENDTAB
0
TABLE
2
STYLE
5
3
100
AcDbSymbolTable
70
1
0
STYLE
5
11
100
AcDbSymbolTableRecord
100
AcDbTextStyleTableRecord
2
STANDARD
70
0
0
ENDTAB
0
TABLE
2
VIEW
5
6
100
AcDbSymbolTable
70
0
0
ENDTAB
0
TABLE
2
UCS
5
7
100
AcDbSymbolTable
70
0
0
ENDTAB
0
TABLE
2
APPID
5
9
100
AcDbSymbolTable
70
2
0
APPID
5
12
100
AcDbSymbolTableRecord
100
AcDbRegAppTableRecord
2
ACAD
70
0
0
ENDTAB
0
TABLE
2
DIMSTYLE
5
A
100
AcDbSymbolTable
70
1
0
ENDTAB
0
TABLE
2
BLOCK_RECORD
5
1
100
AcDbSymbolTable
70
1
0
BLOCK_RECORD
5
1F
100
AcDbSymbolTableRecord
100
AcDbBlockTableRecord
2
*MODEL_SPACE
0
BLOCK_RECORD
5
1B
100
AcDbSymbolTableRecord
100
AcDbBlockTableRecord
2
*PAPER_SPACE
0
ENDTAB
0
ENDSEC
0
SECTION
2
BLOCKS
0
BLOCK
5
20
100
AcDbEntity
100
AcDbBlockBegin
2
*MODEL_SPACE
0
ENDBLK
5
21
100
AcDbEntity
100
AcDbBlockEnd
0
BLOCK
5
1C
100
AcDbEntity
100
AcDbBlockBegin
2
*PAPER_SPACE
0
ENDBLK
5
1D
100
AcDbEntity
100
AcDbBlockEnd
0
ENDSEC
0
SECTION
2
ENTITIES
0
CIRCLE
5
100
100
AcDbEntity
8
0
100
AcDbCircle
10
10.063922504276634
20
-0.037485886717136624
30
0
40
7.5
210
0
220
0
230
1
0
LWPOLYLINE
5
101
100
AcDbEntity
8
0
100
AcDbPolyline
90
22
70
1
43
0.0
10
-21.314669774409872
20
-30.282888733623455
42
-0.40321492739972153
10
-30.213202539822749
20
-21.383984657062779
10
-30.213235195631864
20
-10.245178091150965
10
-24.213235195657653
20
-10.245160500859583
10
-24.21325864937949
20
-2.2451605008939635
10
-24.213270376240416
20
1.7548394990888472
10
-24.213293829962261
20
9.7548394990544658
10
-30.213293829936472
20
9.7548219087630841
10
-30.213326485745601
20
20.893628474674909
42
-0.41421658379080756
10
-21.518226314094008
20
30.213055207802295
10
-9.9995554269159559
20
30.213059428779193
10
-9.9995532282463095
20
24.213055319737219
10
10.000446771753452
20
24.213059633017853
10
10.000444573082703
20
30.213066757672991
10
21.217165366748652
20
30.213070868058285
42
-0.41444816490512743
10
25.21716555079372
20
26.209868667389852
10
25.175139900556623
20
-26.286075364137375
42
-0.41397899875489019
10
21.175142648092987
20
-30.282873163468413
10
9.999905367889486
20
-30.282877258564341
10
9.9999031692214917
20
-24.282884955918394
10
-9.9995354571638266
20
-24.282892284615407
10
-9.9995332584944592
20
-30.282884587259122
0
CIRCLE
5
102
100
AcDbEntity
8
0
100
AcDbCircle
10
9.895232756920457
20
17.499686392183669
30
0
40
3.5000000000000004
210
-0
220
0
230
1
0
CIRCLE
5
103
100
AcDbEntity
8
0
100
AcDbCircle
10
9.9999999999999822
20
-17.499999999999979
30
0
40
3.5000000000000004
210
-0
220
0
230
1
0
LINE
5
104
100
AcDbEntity
8
0
100
AcDbLine
10
9.9999031692214917
20
-24.282884955918394
30
0
11
9.999905367889486
21
-30.282877258564341
31
0
0
LINE
5
105
100
AcDbEntity
8
0
100
AcDbLine
10
-9.9995332584944592
20
-30.282884587259122
30
0
11
-9.9995354571638266
21
-24.282892284615407
31
0
0
LWPOLYLINE
5
106
100
AcDbEntity
8
0
100
AcDbPolyline
90
8
70
1
43
0.0
10
20.824826003857517
20
-5.3481314098817156
42
-0.16630486816738746
10
15.317684324359258
20
-10.82627575110147
42
-0.44054300133763652
10
13.945431446671117
20
-10.283332129171443
10
13.587749908869158
20
-9.3448011449721218
42
-0.38579768294157823
10
14.076362621823035
20
-8.0935596390548223
42
0.16161575189762889
10
18.097075738127081
20
-4.0956195860274605
42
-0.38454321967360278
10
19.34699471323831
20
-3.6125514062985813
10
20.285430439131389
20
-3.9716056921879721
42
-0.44172830862549345
0
LWPOLYLINE
5
107
100
AcDbEntity
8
0
100
AcDbPolyline
90
8
70
1
43
0.0
10
15.346205789018935
20
10.737368325741253
42
-0.16630458338222159
10
20.838830876718522
20
5.244686920516819
42
-0.44113432328616292
10
20.297655707491622
20
3.8702997989754739
10
19.359174361191162
20
3.5119333835883553
42
-0.38517160352428975
10
18.108588699870772
20
3.9977769054024765
42
0.16161549838622602
10
14.099274026074154
20
8.0071358008158704
42
-0.38516917290563601
10
13.613441277507654
20
9.2577189113812732
10
13.971810375413067
20
10.196200064431446
42
-0.4411366199099801
0
LINE
5
108
100
AcDbEntity
8
0
100
AcDbLine
10
-17.748384253230377
20
-24.678030708852848
30
0
11
-18.386031889939161
21
-25.315676711125271
31
0
0
LWPOLYLINE
5
109
100
AcDbEntity
8
0
100
AcDbPolyline
90
8
70
1
43
0.0
10
-0.71797351209615057
20
5.2304091665394061
42
-0.16630486816738735
10
4.7673827421756778
20
10.730367499565736
42
-0.44172830862549395
10
6.1432004483653451
20
10.189168584144161
10
6.5010246899051394
20
9.2502631554589865
42
-0.38454321967360255
10
6.0163190179291615
20
8.0009782711495756
42
0.16161575189762881
10
2.0131136126253746
20
3.9855075497812393
42
-0.38579768294157685
10
0.76123289775850367
20
3.498534896406587
10
-0.17682857097070212
20
3.8574459880046641
42
-0.44054300133763691
0
LWPOLYLINE
5
110
100
AcDbEntity
8
0
100
AcDbPolyline
90
8
70
1
43
0.0
10
4.7817220784762782
20
-10.812380719692289
42
-0.16630458338222148
10
-0.71094524786086799
20
-5.3197415529971561
42
-0.44113661990998027
10
-0.16977346365933288
20
-3.9453475265353042
10
0.76870860797069152
20
-3.5869808341754501
42
-0.38516917290563663
10
2.0192904732302122
20
-4.0728167882742836
42
0.16161549838622608
10
6.0286390918290733
20
-8.0821417389724441
42
-0.38517160352429025
10
6.5144794081011259
20
-9.3327286456181042
10
6.1561105871703141
20
-10.271209073339428
42
-0.44113432328616359
0
LINE
5
111
100
AcDbEntity
8
0
100
AcDbLine
10
10.033535087498873
20
-0.049134644967211788
30
0
11
10.056206949290829
21
-0.057809111338094243
31
0
0
LINE
5
112
100
AcDbEntity
8
0
100
AcDbLine
10
10.04362931102259
20
-0.045280087053439028
30
0
11
10.052301735283445
21
-0.068035913163309161
31
0
0
LINE
5
113
100
AcDbEntity
8
0
100
AcDbLine
10
10.06395513156297
20
-0.037518514087101301
30
0
11
10.052301735283445
21
-0.068035913163309161
31
0
0
LINE
5
114
100
AcDbEntity
8
0
100
AcDbLine
10
10.06395513156297
20
-0.037518514087101301
30
0
11
10.033535087498873
21
-0.049134644967211788
31
0
0
CIRCLE
5
115
100
AcDbEntity
8
0
100
AcDbCircle
10
-27.213323147101669
20
19.7548307038658
30
0
40
1.9999999999999993
210
0
220
0
230
1
0
CIRCLE
5
116
100
AcDbEntity
8
0
100
AcDbCircle
10
-27.213205878492467
20
-20.245169295962306
30
0
40
1.9999999999999993
210
0
220
0
230
1
0
CIRCLE
5
117
100
AcDbEntity
8
0
100
AcDbCircle
10
-27.186006009993847
20
-20.051722520641107
30
0
40
1.9999999999999973
210
-0
220
0
230
1
0
CIRCLE
5
118
100
AcDbEntity
8
0
100
AcDbCircle
10
-27.186123278600078
20
19.948277479101041
30
0
40
2.0000000000000018
210
-0
220
0
230
1
0
LINE
5
119
100
AcDbEntity
8
0
100
AcDbLine
10
10.027196865842818
20
-30.264846936114989
30
0
11
21.240406525356068
21
-30.264851543669785
31
0
0
ARC
5
120
100
AcDbEntity
8
0
100
AcDbCircle
10
21.240408168972809
20
-26.264851543670112
30
0
40
4.000000000000008
210
0
220
0
230
1
100
AcDbArc
50
-90.000023543075599
51
5.2560846396705549e-05
0
LINE
5
121
100
AcDbEntity
8
0
100
AcDbLine
10
25.240408168971133
20
-26.264847873638374
30
0
11
25.240360067447114
21
26.161427919553013
31
0
0
ARC
5
122
100
AcDbEntity
8
0
100
AcDbCircle
10
21.24036006744879
20
26.161424249521282
30
0
40
4.0000000000000044
210
0
220
-0
230
1
100
AcDbArc
50
5.2560846396705549e-05
51
89.999999999999844
0
LINE
5
123
100
AcDbEntity
8
0
100
AcDbLine
10
21.240360067448801
20
30.161424249521286
30
0
11
10.027118909906712
21
30.161424249521286
31
0
0
LINE
5
124
100
AcDbEntity
8
0
100
AcDbLine
10
10.027118909906712
20
30.161424249521286
30
0
11
10.02711890990671
21
24.161424249521282
31
0
0
LINE
5
125
100
AcDbEntity
8
0
100
AcDbLine
10
10.02711890990671
20
24.161424249521282
30
0
11
-9.9728810900932903
21
24.161424249521293
31
0
0
LINE
5
126
100
AcDbEntity
8
0
100
AcDbLine
10
-9.9728810900932903
20
24.161424249521293
30
0
11
-9.9728810900932885
21
30.161424249521289
31
0
0
LINE
5
127
100
AcDbEntity
8
0
100
AcDbLine
10
-9.9728810900932885
20
30.161424249521289
30
0
11
-21.186126835175052
21
30.161424249521293
31
0
0
ARC
5
128
100
AcDbEntity
8
0
100
AcDbCircle
10
-21.18612683517506
20
21.161424249521296
30
0
40
9
210
0
220
-0
230
1
100
AcDbArc
50
89.999999999999943
51
180.00016797440497
0
LINE
5
129
100
AcDbEntity
8
0
100
AcDbLine
10
-30.186126835136381
20
21.161397864084897
30
0
11
-30.186093961435624
21
9.9482686840415226
31
0
0
LINE
5
130
100
AcDbEntity
8
0
100
AcDbLine
10
-24.186093961461413
20
9.9482862743324567
30
0
11
-24.186020668582522
21
-10.051713725527875
31
0
0
LINE
5
131
100
AcDbEntity
8
0
100
AcDbLine
10
-24.186020668582522
20
-10.051713725527875
30
0
11
-30.186035327132515
21
-10.051731315872527
31
0
0
LINE
5
132
100
AcDbEntity
8
0
100
AcDbLine
10
-30.186035327132515
20
-10.051731315872527
30
0
11
-30.186002453431762
21
-21.264860495915904
31
0
0
ARC
5
133
100
AcDbEntity
8
0
100
AcDbCircle
10
-21.186002453470437
20
-21.264834110479505
30
0
40
9
210
0
220
0
230
1
100
AcDbArc
50
180.00016797223518
51
269.99997645692423
0
LINE
5
134
100
AcDbEntity
8
0
100
AcDbLine
10
-21.186006151608126
20
-30.264834110478745
30
0
11
-9.9728031341554946
21
-30.264838718031246
31
0
0
LINE
5
135
100
AcDbEntity
8
0
100
AcDbLine
10
-9.9728031341554946
20
-30.264838718031246
30
0
11
-9.9728006687303719
21
-24.264838718031751
31
0
0
LINE
5
136
100
AcDbEntity
8
0
100
AcDbLine
10
-9.9728006687303719
20
-24.264838718031751
30
0
11
10.027199331267937
21
-24.264846936115493
31
0
0
LINE
5
137
100
AcDbEntity
8
0
100
AcDbLine
10
10.027199331267937
20
-24.264846936115493
30
0
11
10.027196865842818
21
-30.264846936114989
31
0
0
CIRCLE
5
138
100
AcDbEntity
8
0
100
AcDbCircle
10
-18.18605731506225
20
-0.051691737760900636
30
0
40
5.5
210
0
220
0
230
1
0
CIRCLE
5
139
100
AcDbEntity
8
0
100
AcDbCircle
10
-18.18605731506225
20
7.9483082622390988
30
0
40
1.6000000000000005
210
0
220
0
230
1
0
CIRCLE
5
140
100
AcDbEntity
8
0
100
AcDbCircle
10
-18.18605731506225
20
-8.0516917377608994
30
0
40
1.6000000000000003
210
0
220
0
230
1
0
ENDSEC
0
SECTION
2
OBJECTS
0
DICTIONARY
5
C
100
AcDbDictionary
3
ACAD_GROUP
350
D
3
ACAD_MLINESTYLE
350
17
0
DICTIONARY
5
D
100
AcDbDictionary
0
DICTIONARY
5
1A
330
C
100
AcDbDictionary
0
DICTIONARY
5
17
100
AcDbDictionary
0
ENDSEC
0
EOF
