0
SECTION
2
HEADER
9
$INSUNITS
70
4
9
$ACADVER
1
AC1014
9
$HANDSEED
5
FFFF
0
ENDSEC
0
SECTION
2
TABLES
0
TABLE
2
VPORT
5
8
100
AcDbSymbolTable
0
ENDTAB
0
TABLE
2
LTYPE
5
5
100
AcDbSymbolTable
0
LTYPE
5
14
100
AcDbSymbolTableRecord
100
AcDbLinetypeTableRecord
2
BYBLOCK
70
0
0
LTYPE
5
15
100
AcDbSymbolTableRecord
100
AcDbLinetypeTableRecord
2
BYLAYER
70
0
0
ENDTAB
0
TABLE
2
LAYER
5
2
100
AcDbSymbolTable
70
2
0
LAYER
5
50
100
AcDbSymbolTableRecord
100
AcDbLayerTableRecord
2
0
70
0
6
CONTINUOUS
0
ENDTAB
0
TABLE
2
STYLE
5
3
100
AcDbSymbolTable
70
1
0
STYLE
5
11
100
AcDbSymbolTableRecord
100
AcDbTextStyleTableRecord
2
STANDARD
70
0
0
ENDTAB
0
TABLE
2
VIEW
5
6
100
AcDbSymbolTable
70
0
0
ENDTAB
0
TABLE
2
UCS
5
7
100
AcDbSymbolTable
70
0
0
ENDTAB
0
TABLE
2
APPID
5
9
100
AcDbSymbolTable
70
2
0
APPID
5
12
100
AcDbSymbolTableRecord
100
AcDbRegAppTableRecord
2
ACAD
70
0
0
ENDTAB
0
TABLE
2
DIMSTYLE
5
A
100
AcDbSymbolTable
70
1
0
ENDTAB
0
TABLE
2
BLOCK_RECORD
5
1
100
AcDbSymbolTable
70
1
0
BLOCK_RECORD
5
1F
100
AcDbSymbolTableRecord
100
AcDbBlockTableRecord
2
*MODEL_SPACE
0
BLOCK_RECORD
5
1B
100
AcDbSymbolTableRecord
100
AcDbBlockTableRecord
2
*PAPER_SPACE
0
ENDTAB
0
ENDSEC
0
SECTION
2
BLOCKS
0
BLOCK
5
20
100
AcDbEntity
100
AcDbBlockBegin
2
*MODEL_SPACE
0
ENDBLK
5
21
100
AcDbEntity
100
AcDbBlockEnd
0
BLOCK
5
1C
100
AcDbEntity
100
AcDbBlockBegin
2
*PAPER_SPACE
0
ENDBLK
5
1D
100
AcDbEntity
100
AcDbBlockEnd
0
ENDSEC
0
SECTION
2
ENTITIES
0
LINE
5
100
100
AcDbEntity
8
0
100
AcDbLine
10
24.000000000000004
20
34.75
30
0
11
10
21
34.75
31
0
0
LINE
5
101
100
AcDbEntity
8
0
100
AcDbLine
10
10
20
34.75
30
0
11
10
21
41.25
31
0
0
LINE
5
102
100
AcDbEntity
8
0
100
AcDbLine
10
-10
20
41.25
30
0
11
-9.9999999999999982
21
34.75
31
0
0
LINE
5
103
100
AcDbEntity
8
0
100
AcDbLine
10
-9.9999999999999982
20
34.75
30
0
11
-13
21
34.75
31
0
0
LINE
5
104
100
AcDbEntity
8
0
100
AcDbLine
10
-13
20
34.75
30
0
11
-13
21
-34.749999999999993
31
0
0
LINE
5
105
100
AcDbEntity
8
0
100
AcDbLine
10
-13
20
-34.749999999999993
30
0
11
-9.9999999999999982
21
-34.75
31
0
0
LINE
5
106
100
AcDbEntity
8
0
100
AcDbLine
10
-9.9999999999999982
20
-34.75
30
0
11
-10
21
-41.25
31
0
0
LINE
5
107
100
AcDbEntity
8
0
100
AcDbLine
10
-10
20
-41.25
30
0
11
-13
21
-41.25
31
0
0
LINE
5
108
100
AcDbEntity
8
0
100
AcDbLine
10
-13
20
-41.25
30
0
11
-13
21
-45.25
31
0
0
LINE
5
109
100
AcDbEntity
8
0
100
AcDbLine
10
-13
20
-45.25
30
0
11
12.999999999999996
21
-45.25
31
0
0
LINE
5
110
100
AcDbEntity
8
0
100
AcDbLine
10
12.999999999999996
20
-45.25
30
0
11
12.999999999999998
21
-41.25
31
0
0
LINE
5
111
100
AcDbEntity
8
0
100
AcDbLine
10
12.999999999999998
20
-41.25
30
0
11
10
21
-41.25
31
0
0
LINE
5
112
100
AcDbEntity
8
0
100
AcDbLine
10
10
20
-41.25
30
0
11
10
21
-34.75
31
0
0
LINE
5
113
100
AcDbEntity
8
0
100
AcDbLine
10
10
20
-34.75
30
0
11
24.000000000000004
21
-34.750000000000007
31
0
0
LINE
5
114
100
AcDbEntity
8
0
100
AcDbLine
10
17
20
7.9999999999999964
30
0
11
24.000000000000004
21
7.9999999999999964
31
0
0
LINE
5
115
100
AcDbEntity
8
0
100
AcDbLine
10
24.000000000000004
20
11.999999999999995
30
0
11
17
21
11.999999999999995
31
0
0
LINE
5
116
100
AcDbEntity
8
0
100
AcDbLine
10
17
20
13.499999999999996
30
0
11
13.5
21
13.499999999999996
31
0
0
LINE
5
117
100
AcDbEntity
8
0
100
AcDbLine
10
13.5
20
11.999999999999995
30
0
11
10.000000000000002
21
11.999999999999995
31
0
0
LINE
5
118
100
AcDbEntity
8
0
100
AcDbLine
10
10.000000000000002
20
7.9999999999999964
30
0
11
13.5
21
7.9999999999999964
31
0
0
LINE
5
119
100
AcDbEntity
8
0
100
AcDbLine
10
13.5
20
6.4999999999999947
30
0
11
17
21
6.4999999999999947
31
0
0
LINE
5
120
100
AcDbEntity
8
0
100
AcDbLine
10
17
20
-6.5000000000000036
30
0
11
13.5
21
-6.5000000000000036
31
0
0
LINE
5
121
100
AcDbEntity
8
0
100
AcDbLine
10
10.000000000000002
20
-12.000000000000004
30
0
11
13.5
21
-12.000000000000004
31
0
0
LINE
5
122
100
AcDbEntity
8
0
100
AcDbLine
10
24.000000000000004
20
-8.0000000000000053
30
0
11
17
21
-8.0000000000000053
31
0
0
LINE
5
123
100
AcDbEntity
8
0
100
AcDbLine
10
13.5
20
-8.0000000000000053
30
0
11
10.000000000000002
21
-8.0000000000000053
31
0
0
LINE
5
124
100
AcDbEntity
8
0
100
AcDbLine
10
17
20
-12.000000000000004
30
0
11
24.000000000000004
21
-12.000000000000004
31
0
0
LINE
5
125
100
AcDbEntity
8
0
100
AcDbLine
10
13.5
20
-13.500000000000005
30
0
11
17
21
-13.500000000000005
31
0
0
LINE
5
126
100
AcDbEntity
8
0
100
AcDbLine
10
24.000000000000004
20
1.9999999999999956
30
0
11
24.000000000000004
21
1.408067124517713
31
0
0
LINE
5
127
100
AcDbEntity
8
0
100
AcDbLine
10
24.000000000000004
20
1.408067124517713
30
0
11
24.000000000000004
21
-2.0000000000000044
31
0
0
LINE
5
128
100
AcDbEntity
8
0
100
AcDbLine
10
17
20
13.499999999999996
30
0
11
17
21
11.999999999999995
31
0
0
LINE
5
129
100
AcDbEntity
8
0
100
AcDbLine
10
13.5
20
13.499999999999996
30
0
11
13.5
21
11.999999999999995
31
0
0
LINE
5
130
100
AcDbEntity
8
0
100
AcDbLine
10
10.000000000000002
20
11.999999999999995
30
0
11
10.000000000000002
21
7.9999999999999964
31
0
0
LINE
5
131
100
AcDbEntity
8
0
100
AcDbLine
10
13.5
20
7.9999999999999964
30
0
11
13.5
21
6.4999999999999947
31
0
0
LINE
5
132
100
AcDbEntity
8
0
100
AcDbLine
10
17
20
6.4999999999999947
30
0
11
17
21
7.9999999999999964
31
0
0
LINE
5
133
100
AcDbEntity
8
0
100
AcDbLine
10
10.000000000000002
20
-12.000000000000004
30
0
11
10.000000000000002
21
-8.0000000000000053
31
0
0
LINE
5
134
100
AcDbEntity
8
0
100
AcDbLine
10
13.5
20
-8.0000000000000053
30
0
11
13.5
21
-6.5000000000000036
31
0
0
LINE
5
135
100
AcDbEntity
8
0
100
AcDbLine
10
17
20
-6.5000000000000036
30
0
11
17
21
-8.0000000000000053
31
0
0
LINE
5
136
100
AcDbEntity
8
0
100
AcDbLine
10
17
20
-12.000000000000004
30
0
11
17
21
-13.500000000000005
31
0
0
LINE
5
137
100
AcDbEntity
8
0
100
AcDbLine
10
13.5
20
-12.000000000000004
30
0
11
13.5
21
-13.500000000000005
31
0
0
LINE
5
138
100
AcDbEntity
8
0
100
AcDbLine
10
24.000000000000004
20
34.75
30
0
11
24.000000000000004
21
11.999999999999995
31
0
0
LINE
5
139
100
AcDbEntity
8
0
100
AcDbLine
10
24.000000000000004
20
7.9999999999999964
30
0
11
24.000000000000004
21
-8.0000000000000053
31
0
0
LINE
5
140
100
AcDbEntity
8
0
100
AcDbLine
10
24.000000000000004
20
-12.000000000000004
30
0
11
24.000000000000004
21
-34.750000000000007
31
0
0
LINE
5
141
100
AcDbEntity
8
0
100
AcDbLine
10
10
20
41.25
30
0
11
13
21
41.25
31
0
0
LINE
5
142
100
AcDbEntity
8
0
100
AcDbLine
10
13
20
41.25
30
0
11
13
21
45.266302264924775
31
0
0
LINE
5
143
100
AcDbEntity
8
0
100
AcDbLine
10
-10
20
41.25
30
0
11
-13
21
41.25
31
0
0
LINE
5
144
100
AcDbEntity
8
0
100
AcDbLine
10
-13
20
41.25
30
0
11
-13
21
45.266302264924775
31
0
0
LINE
5
145
100
AcDbEntity
8
0
100
AcDbLine
10
13
20
45.266302264924775
30
0
11
-13
21
45.266302264924775
31
0
0
ENDSEC
0
SECTION
2
OBJECTS
0
DICTIONARY
5
C
100
AcDbDictionary
3
ACAD_GROUP
350
D
3
ACAD_MLINESTYLE
350
17
0
DICTIONARY
5
D
100
AcDbDictionary
0
DICTIONARY
5
1A
330
C
100
AcDbDictionary
0
DICTIONARY
5
17
100
AcDbDictionary
0
ENDSEC
0
EOF
