0
SECTION
2
HEADER
9
$INSUNITS
70
4
9
$ACADVER
1
AC1014
9
$HANDSEED
5
FFFF
0
ENDSEC
0
SECTION
2
TABLES
0
TABLE
2
VPORT
5
8
100
AcDbSymbolTable
0
ENDTAB
0
TABLE
2
LTYPE
5
5
100
AcDbSymbolTable
0
LTYPE
5
14
100
AcDbSymbolTableRecord
100
AcDbLinetypeTableRecord
2
BYBLOCK
70
0
0
LTYPE
5
15
100
AcDbSymbolTableRecord
100
AcDbLinetypeTableRecord
2
BYLAYER
70
0
0
ENDTAB
0
TABLE
2
LAYER
5
2
100
AcDbSymbolTable
70
2
0
LAYER
5
50
100
AcDbSymbolTableRecord
100
AcDbLayerTableRecord
2
0
70
0
6
CONTINUOUS
0
ENDTAB
0
TABLE
2
STYLE
5
3
100
AcDbSymbolTable
70
1
0
STYLE
5
11
100
AcDbSymbolTableRecord
100
AcDbTextStyleTableRecord
2
STANDARD
70
0
0
ENDTAB
0
TABLE
2
VIEW
5
6
100
AcDbSymbolTable
70
0
0
ENDTAB
0
TABLE
2
UCS
5
7
100
AcDbSymbolTable
70
0
0
ENDTAB
0
TABLE
2
APPID
5
9
100
AcDbSymbolTable
70
2
0
APPID
5
12
100
AcDbSymbolTableRecord
100
AcDbRegAppTableRecord
2
ACAD
70
0
0
ENDTAB
0
TABLE
2
DIMSTYLE
5
A
100
AcDbSymbolTable
70
1
0
ENDTAB
0
TABLE
2
BLOCK_RECORD
5
1
100
AcDbSymbolTable
70
1
0
BLOCK_RECORD
5
1F
100
AcDbSymbolTableRecord
100
AcDbBlockTableRecord
2
*MODEL_SPACE
0
BLOCK_RECORD
5
1B
100
AcDbSymbolTableRecord
100
AcDbBlockTableRecord
2
*PAPER_SPACE
0
ENDTAB
0
ENDSEC
0
SECTION
2
BLOCKS
0
BLOCK
5
20
100
AcDbEntity
100
AcDbBlockBegin
2
*MODEL_SPACE
0
ENDBLK
5
21
100
AcDbEntity
100
AcDbBlockEnd
0
BLOCK
5
1C
100
AcDbEntity
100
AcDbBlockBegin
2
*PAPER_SPACE
0
ENDBLK
5
1D
100
AcDbEntity
100
AcDbBlockEnd
0
ENDSEC
0
SECTION
2
ENTITIES
0
ARC
5
100
100
AcDbEntity
8
0
100
AcDbCircle
10
-21.213203040469722
20
-21.213203040469718
30
0
40
9
210
0
220
0
230
1
100
AcDbArc
50
180.00016797223518
51
269.99997645692429
0
ARC
5
101
100
AcDbEntity
8
0
100
AcDbCircle
10
-21.213327422174352
20
21.213055319531083
30
0
40
9
210
0
220
-0
230
1
100
AcDbArc
50
90
51
180.00016797440497
0
LINE
5
102
100
AcDbEntity
8
0
100
AcDbLine
10
-10.000081677092588
20
30.21305531953108
30
0
11
-10.000081677092588
21
24.21305531953108
31
0
0
LINE
5
103
100
AcDbEntity
8
0
100
AcDbLine
10
9.999918322907412
20
30.21305531953108
30
0
11
9.999918322907412
21
24.21305531953108
31
0
0
LINE
5
104
100
AcDbEntity
8
0
100
AcDbLine
10
-30.213235914131801
20
-10.000100245862743
30
0
11
-24.213221255581807
21
-10.00008265551809
31
0
0
LINE
5
105
100
AcDbEntity
8
0
100
AcDbLine
10
-30.21329454843492
20
9.9998997540513059
30
0
11
-24.213294548460706
21
9.9999173443422418
31
0
0
LINE
5
106
100
AcDbEntity
8
0
100
AcDbLine
10
9.9999962788435361
20
-30.213215866105191
30
0
11
9.9999987442686571
21
-24.213215866105699
31
0
0
LINE
5
107
100
AcDbEntity
8
0
100
AcDbLine
10
-10.000003721154776
20
-30.213207648021459
30
0
11
-10.000001255729655
21
-24.213207648021964
31
0
0
LINE
5
108
100
AcDbEntity
8
0
100
AcDbLine
10
-21.213327422174352
20
30.21305531953108
30
0
11
-9.9999788917503416
21
30.213055319531076
31
0
0
LINE
5
109
100
AcDbEntity
8
0
100
AcDbLine
10
9.999918322907412
20
30.21305531953108
30
0
11
21.213159480449502
21
30.21305531953108
31
0
0
LINE
5
110
100
AcDbEntity
8
0
100
AcDbLine
10
-30.21332742213567
20
21.21302893409468
30
0
11
-30.21329454843492
21
9.9998997540513059
31
0
0
LINE
5
111
100
AcDbEntity
8
0
100
AcDbLine
10
-30.213235914131801
20
-10.000100245862743
30
0
11
-30.213203040431047
21
-21.213229425906121
31
0
0
LINE
5
112
100
AcDbEntity
8
0
100
AcDbLine
10
-21.213206738607408
20
-30.213203040469388
30
0
11
-10.000003721154776
21
-30.213207648021459
31
0
0
LINE
5
113
100
AcDbEntity
8
0
100
AcDbLine
10
9.9999962788435361
20
-30.213215866105191
30
0
11
21.213205938356783
21
-30.213220473659987
31
0
0
LINE
5
114
100
AcDbEntity
8
0
100
AcDbLine
10
-10.000081677092588
20
24.21305531953108
30
0
11
9.999918322907412
21
24.21305531953108
31
0
0
LINE
5
115
100
AcDbEntity
8
0
100
AcDbLine
10
-10.000001255729655
20
-24.213207648021964
30
0
11
9.9999987442686571
21
-24.213215866105699
31
0
0
CIRCLE
5
116
100
AcDbEntity
8
0
100
AcDbCircle
10
-27.213323865599371
20
19.999908549110824
30
0
40
2.0000000000000009
210
0
220
0
230
1
0
CIRCLE
5
117
100
AcDbEntity
8
0
100
AcDbCircle
10
-27.213206596993132
20
-20.000091450631324
30
0
40
1.9999999999999993
210
0
220
0
230
1
0
LINE
5
118
100
AcDbEntity
8
0
100
AcDbLine
10
-24.213294548460706
20
9.9999173443422418
30
0
11
-24.213265231309148
21
1.9999173443852163
31
0
0
LINE
5
119
100
AcDbEntity
8
0
100
AcDbLine
10
-24.213250572733365
20
-2.0000826556147837
30
0
11
-24.213221255581807
21
-10.00008265551809
31
0
0
LINE
5
120
100
AcDbEntity
8
0
100
AcDbLine
10
-24.213250572733365
20
-2.0000826556147837
30
0
11
-24.213265231309148
21
1.9999173443852163
31
0
0
CIRCLE
5
121
100
AcDbEntity
8
0
100
AcDbCircle
10
-18.213257902061542
20
-6.0667751114055156e-05
30
0
40
5.0000000000000009
210
0
220
0
230
1
0
CIRCLE
5
122
100
AcDbEntity
8
0
100
AcDbCircle
10
10.036721917277347
20
-14.485854816707347
30
0
40
2.1000000000000001
210
0
220
0
230
1
0
CIRCLE
5
123
100
AcDbEntity
8
0
100
AcDbCircle
10
10.036721917277347
20
14.514145183292662
30
0
40
2.100000000000001
210
0
220
0
230
1
0
LINE
5
124
100
AcDbEntity
8
0
100
AcDbLine
10
25.213159480447814
20
26.213058989562818
30
0
11
25.213207581971851
21
-26.213216803628576
31
0
0
LINE
5
125
100
AcDbEntity
8
0
100
AcDbLine
10
-30.429681169880652
20
12.99986861485619
30
0
11
-30.429681169880585
21
-13.000131385143812
31
0
0
ARC
5
126
100
AcDbEntity
8
0
100
AcDbCircle
10
21.213207581973528
20
-26.213220473660318
30
0
40
4.000000000000008
210
0
220
0
230
1
100
AcDbArc
50
-90.000023543075656
51
5.2560846396705549e-05
0
ARC
5
127
100
AcDbEntity
8
0
100
AcDbCircle
10
21.213159480449491
20
26.21305531953108
30
0
40
4.0000000000000044
210
0
220
-0
230
1
100
AcDbArc
50
5.2560846396705549e-05
51
89.999999999999844
0
CIRCLE
5
128
100
AcDbEntity
8
0
100
AcDbCircle
10
-18.213250561998063
20
-8.0000606677477464
30
0
40
1.5999999999999994
210
0
220
0
230
1
0
CIRCLE
5
129
100
AcDbEntity
8
0
100
AcDbCircle
10
-18.213265242125022
20
7.9999393322370214
30
0
40
1.6000000000000003
210
0
220
0
230
1
0
LWPOLYLINE
5
130
100
AcDbEntity
8
0
100
AcDbPolyline
90
8
70
1
43
0.0
10
3.3554046818813177
20
-11.558235729898893
10
2.2527640551097967
20
-13.468065317956764
42
-0.43312891940867754
10
0.83225254453355713
20
-13.800258298806082
42
-0.099149417260286019
10
-3.7776815648213935
20
-9.1903241894511218
42
-0.43312891940867326
10
-3.4454885839720713
20
-7.7698126788748914
10
-1.5356589959142029
20
-6.6671720521033704
42
-0.39250094462719848
10
-0.20936191284020911
20
-6.9699629305758304
42
0.093825416270195972
10
3.0526138034088488
20
-10.231938646824894
42
-0.39250094462720136
0
LWPOLYLINE
5
131
100
AcDbEntity
8
0
100
AcDbPolyline
90
8
70
1
43
0.0
10
17.820679779444891
20
13.496355684542078
10
16.71803915267337
20
11.586526096484208
42
0.39250094462720225
10
17.020830031145831
20
10.260229013410218
42
-0.093825416270196221
10
20.282805747394903
20
6.9982532971611464
42
0.39250094462720136
10
21.609102830468899
20
6.6954624186886846
10
23.51893241852677
20
7.7981030454602083
42
0.43312891940867593
10
23.851125399376091
20
9.2186145560364405
42
0.099149417260286268
10
19.241191290021124
20
13.828548665391406
42
0.43312891940867421
0
LWPOLYLINE
5
132
100
AcDbEntity
8
0
100
AcDbPolyline
90
8
70
1
43
0.0
10
3.3554046818813168
20
11.586526096484207
10
2.2527640551097949
20
13.496355684542072
42
0.43312891940867326
10
0.83225254453356268
20
13.828548665391393
42
0.099149417260286199
10
-3.7776815648213935
20
9.2186145560364334
42
0.43312891940867432
10
-3.4454885839720708
20
7.7981030454602065
10
-1.535658995914206
20
6.6954624186886855
42
0.39250094462719926
10
-0.20936191284020467
20
6.9982532971611544
42
-0.093825416270195791
10
3.0526138034088524
20
10.260229013410209
42
0.39250094462720159
0
LWPOLYLINE
5
133
100
AcDbEntity
8
0
100
AcDbPolyline
90
8
70
1
43
0.0
10
17.820679779444898
20
-13.468065317956759
10
16.718039152673377
20
-11.558235729898893
42
-0.3925009446272032
10
17.020830031145842
20
-10.231938646824897
42
0.093825416270195749
10
20.282805747394899
20
-6.9699629305758428
42
-0.39250094462720092
10
21.609102830468903
20
-6.6671720521033695
10
23.518932418526767
20
-7.7698126788748922
42
-0.43312891940867626
10
23.85112539937608
20
-9.1903241894511449
42
-0.099149417260285796
10
19.241191290021128
20
-13.800258298806083
42
-0.43312891940867032
0
CIRCLE
5
134
100
AcDbEntity
8
0
100
AcDbCircle
10
10.036721917277347
20
0.014145183292658191
30
0
40
8.9999999999999982
210
0
220
0
230
1
0
ENDSEC
0
SECTION
2
OBJECTS
0
DICTIONARY
5
C
100
AcDbDictionary
3
ACAD_GROUP
350
D
3
ACAD_MLINESTYLE
350
17
0
DICTIONARY
5
D
100
AcDbDictionary
0
DICTIONARY
5
1A
330
C
100
AcDbDictionary
0
DICTIONARY
5
17
100
AcDbDictionary
0
ENDSEC
0
EOF
